<?xml version="1.0" standalone="no"?>
<!DOCTYPE svg PUBLIC "-//W3C//DTD SVG 20010904//EN"
 "http://www.w3.org/TR/2001/REC-SVG-20010904/DTD/svg10.dtd">
<svg version="1.0" xmlns="http://www.w3.org/2000/svg"
 width="512.000000pt" height="512.000000pt" viewBox="0 0 512.000000 512.000000"
 preserveAspectRatio="xMidYMid meet">
<metadata>
Created by potrace 1.14, written by Peter Selinger 2001-2017
</metadata>
<g transform="translate(0.000000,512.000000) scale(0.100000,-0.100000)"
fill="#000000" stroke="none">
<path d="M2321 5109 c-486 -43 -989 -249 -1376 -564 -114 -92 -294 -274 -384
-387 -229 -287 -417 -675 -495 -1023 -49 -218 -60 -325 -60 -575 0 -250 11
-357 60 -575 79 -355 272 -749 509 -1040 92 -114 274 -294 387 -384 287 -229
675 -417 1023 -495 218 -49 325 -60 575 -60 250 0 357 11 575 60 348 78 736
266 1023 495 113 90 295 270 387 384 237 291 430 685 509 1040 134 600 58
1207 -221 1745 -480 929 -1469 1472 -2512 1379z m553 -234 c780 -109 1442
-587 1786 -1290 270 -550 312 -1175 118 -1760 -369 -1118 -1521 -1789 -2679
-1560 -1265 250 -2090 1498 -1829 2766 228 1107 1223 1896 2349 1863 84 -2
199 -11 255 -19z"/>
<path d="M1974 3560 c-12 -4 -31 -21 -43 -36 l-21 -27 0 -938 0 -937 26 -31
c33 -39 83 -50 131 -27 62 29 63 39 63 486 l0 400 183 -2 182 -3 251 -419
c138 -232 265 -432 282 -447 72 -64 172 -14 172 85 0 26 -51 119 -224 407
l-224 374 82 16 c107 22 173 56 247 130 67 67 112 150 129 238 13 69 13 293 0
362 -35 182 -187 334 -369 369 -65 12 -837 13 -867 0z m899 -243 c55 -33 102
-93 118 -151 17 -61 -1 -309 -26 -360 -24 -49 -71 -97 -121 -122 -36 -17 -66
-19 -381 -22 l-343 -3 0 346 0 346 353 -3 352 -3 48 -28z"/>
</g>
</svg>
